<svg width="81" height="81" viewBox="0 0 81 81" fill="none" xmlns="http://www.w3.org/2000/svg">
<path d="M64.2278 10.1689H17.5612C12.0478 10.1689 7.56116 14.6556 7.56116 20.1689V60.1689C7.56116 65.6823 12.0478 70.1689 17.5612 70.1689H64.2278C69.7412 70.1689 74.2278 65.6823 74.2278 60.1689V20.1689C74.2278 14.6556 69.7412 10.1689 64.2278 10.1689ZM64.2278 63.5023H17.5612C16.6771 63.5023 15.8293 63.1511 15.2041 62.526C14.579 61.9008 14.2278 61.053 14.2278 60.1689V40.1689H20.8945V53.5023H27.5612V40.1689H30.8945V53.5023H37.5612V40.1689H40.8945V53.5023H47.5612V40.1689H54.2278V53.5023H60.8945V40.1689H67.5612V60.1689C67.5612 61.053 67.21 61.9008 66.5848 62.526C65.9597 63.1511 65.1119 63.5023 64.2278 63.5023Z" fill="white"/>
</svg>
